<svg width="22" height="16" viewBox="0 0 22 16" fill="none" xmlns="http://www.w3.org/2000/svg">
<path d="M16.6373 8.53268C16.8872 8.52388 17.1349 8.50857 17.3867 8.50819C17.7112 8.50819 18.0373 8.53115 18.3603 8.52235C18.9405 8.50742 19.2333 8.28353 19.373 7.72361C19.4989 7.21765 19.5862 6.70174 19.7018 6.19272C19.9234 5.21486 20.4707 4.40005 20.9996 3.57145C21.2407 3.19447 21.4282 2.77654 21.5901 2.35746C21.6717 2.14199 21.6789 1.87944 21.654 1.64521C21.6257 1.37731 21.4194 1.20393 21.1818 1.08414C20.7723 0.877089 20.3604 0.931053 19.9375 1.05123C19.0056 1.32013 18.12 1.72908 17.3109 2.26407C15.661 3.35177 14.1864 4.65264 12.776 6.02929C12.3478 6.44761 11.9222 6.8686 11.4951 7.28768C11.4672 7.30836 11.4378 7.32679 11.407 7.3428C11.4104 6.93007 11.4978 6.52235 11.6638 6.14449C11.8215 5.77785 12.0052 5.42306 12.1472 5.03957C12.0707 5.15439 11.985 5.26538 11.9176 5.3867C11.7071 5.77249 11.5043 6.1621 11.2983 6.55018C11.2746 6.59534 11.252 6.64127 11.2253 6.68413C11.0852 6.90917 10.9018 6.91644 10.7713 6.68413C10.5367 6.2685 10.322 5.84214 10.0924 5.42306C10.0158 5.28528 9.92055 5.15898 9.83367 5.02733L9.7866 5.05335C9.90639 5.28796 10.0361 5.51798 10.1433 5.75833C10.2626 6.01187 10.3649 6.27308 10.4495 6.54023C10.526 6.79589 10.5593 7.06418 10.6114 7.32711L10.5325 7.36844C10.4154 7.26051 10.2857 7.1633 10.1831 7.04236C9.07053 5.72847 7.77195 4.61246 6.44543 3.52706C5.64593 2.8726 4.81083 2.26867 3.89459 1.78299C3.1988 1.41481 2.47278 1.11629 1.70197 0.960522C1.50024 0.91993 1.29189 0.926037 1.09288 0.978377C0.893869 1.03072 0.709473 1.1279 0.553808 1.26249C0.291645 1.48179 0.307718 1.796 0.376991 2.09529C0.532759 2.76314 0.846592 3.36363 1.23199 3.91896C1.92089 4.92055 2.33768 6.01973 2.51603 7.21726C2.54588 7.41743 2.61171 7.613 2.66911 7.80819C2.80613 8.26745 3.12838 8.50512 3.59875 8.5212C4.07562 8.53766 4.55326 8.5212 5.03089 8.52464C5.13346 8.52464 5.23641 8.54301 5.33707 8.55296L5.34893 8.60233L4.8514 8.93569C4.45987 9.20053 4.06911 9.46844 3.78284 9.85116C3.23554 10.586 3.2233 11.4065 3.46173 12.2401C3.76982 13.3179 4.53335 14.0244 5.47753 14.5544C5.71278 14.6818 5.95864 14.7884 6.21236 14.8732C7.15538 15.2028 7.96025 14.9881 8.63767 14.2517C9.18725 13.6531 9.59792 12.9677 9.93624 12.2367C10.1609 11.7518 10.3572 11.2535 10.5666 10.7617C10.5884 10.7104 10.6114 10.6599 10.6496 10.5726C10.6787 10.6434 10.6967 10.6786 10.7074 10.7161C10.7319 10.8015 10.7365 10.8971 10.779 10.9718C10.8215 11.0464 10.9007 11.1428 10.96 11.1402C11.0366 11.1367 11.1338 11.0575 11.1736 10.9844C11.2356 10.8696 11.2566 10.7349 11.3079 10.5634C11.36 10.6621 11.4021 10.7326 11.4361 10.8068C11.7488 11.49 12.0401 12.1846 12.3765 12.8544C12.7416 13.5835 13.2051 14.2429 13.9051 14.7029C14.4669 15.0719 15.0444 15.1798 15.6981 14.9326C16.6362 14.5797 17.4831 14.1047 18.071 13.2719C18.6979 12.384 18.9203 11.4115 18.5238 10.3632C18.3232 9.83202 17.9194 9.45657 17.4655 9.13853C17.2317 8.97396 16.9837 8.82929 16.7426 8.67467C16.7043 8.64941 16.666 8.61879 16.6278 8.59085L16.6373 8.53268Z" fill="#161515"/>
</svg>
